<svg width="358" height="151" viewBox="0 0 151 151" fill="none" xmlns="http://www.w3.org/2000/svg">
    <path
        d="M99.504 97.0008C99.9003 101.733 98.2988 106.603 94.6936 110.24C91.0883 113.878 86.2327 115.522 81.4969 115.167C81.1007 110.435 82.7021 105.565 86.3074 101.928C89.9126 98.2907 94.7683 96.6463 99.504 97.0008Z"
        fill="black" />
    <path
        d="M90.9259 90.4245C86.1996 95.4788 79.3718 98.5088 71.9174 98.1683C64.4638 97.8279 57.9412 94.1889 53.6953 88.7258C58.4216 83.6715 65.2494 80.6416 72.7038 80.982C80.1574 81.3224 86.68 84.9614 90.9259 90.4245Z"
        fill="black" />
    <path
        d="M50.917 74.1586C51.9043 62.3235 57.8753 50.9787 68.276 43.5058C78.6763 36.0333 91.3328 33.9939 102.864 36.8338C101.877 48.6688 95.9056 60.0137 85.5049 67.4865C75.1046 74.9591 62.4481 76.9985 50.917 74.1586Z"
        fill="black" />
</svg>